<?xml version="1.0" encoding="UTF-8" standalone="no"?>
<svg
   xmlns:dc="http://purl.org/dc/elements/1.1/"
   xmlns:cc="http://creativecommons.org/ns#"
   xmlns:rdf="http://www.w3.org/1999/02/22-rdf-syntax-ns#"
   xmlns:svg="http://www.w3.org/2000/svg"
   xmlns="http://www.w3.org/2000/svg"
   xmlns:sodipodi="http://sodipodi.sourceforge.net/DTD/sodipodi-0.dtd"
   xmlns:inkscape="http://www.inkscape.org/namespaces/inkscape"
   version="1.1"
   id="Layer_1"
   x="0px"
   y="0px"
   width="16"
   height="16"
   viewBox="0 0 126.72 126.72"
   enable-background="new 0 0 612 792"
   xml:space="preserve"
   inkscape:version="0.48.4 r9939"
   sodipodi:docname="responsible2.svg"
   inkscape:export-filename="/home/kamila/u/projects/trojsten/techwiki/favicon.png"
   inkscape:export-xdpi="90"
   inkscape:export-ydpi="90"><metadata
     id="metadata3071"><rdf:RDF><cc:Work
         rdf:about=""><dc:format>image/svg+xml</dc:format><dc:type
           rdf:resource="http://purl.org/dc/dcmitype/StillImage" /><dc:title></dc:title></cc:Work></rdf:RDF></metadata><defs
     id="defs3069" /><sodipodi:namedview
     pagecolor="#ffffff"
     bordercolor="#666666"
     borderopacity="1"
     objecttolerance="10"
     gridtolerance="10"
     guidetolerance="10"
     inkscape:pageopacity="0"
     inkscape:pageshadow="2"
     inkscape:window-width="1598"
     inkscape:window-height="880"
     id="namedview3067"
     showgrid="false"
     fit-margin-top="0"
     fit-margin-left="0"
     fit-margin-right="0"
     fit-margin-bottom="0"
     inkscape:zoom="23.88"
     inkscape:cx="5.6334675"
     inkscape:cy="4.683334"
     inkscape:window-x="0"
     inkscape:window-y="18"
     inkscape:window-maximized="0"
     inkscape:current-layer="Layer_1"
     inkscape:object-nodes="true"
     inkscape:snap-smooth-nodes="true"
     inkscape:object-paths="true" /><path
     style="fill:#0f9d58;fill-opacity:1;stroke:none"
     d="M 4.875 0.09375 C 3.3948399 0.09375 2.1875 1.5608322 2.1875 3.34375 C 2.1875 4.6925959 2.8684303 5.8297463 3.84375 6.3125 C 1.9280511 6.8692861 0.5000001 8.9589654 0.5 11.4375 L 4.5625 11.4375 C 4.8389759 11.127534 5.1399618 10.854799 5.46875 10.625 C 4.8952694 9.8939551 4.53125 8.9330131 4.53125 7.84375 C 4.53125 5.7388355 5.8480267 3.9999986 7.53125 3.71875 C 7.5431338 3.597052 7.5625 3.469274 7.5625 3.34375 C 7.5625 1.5608322 6.3551601 0.09375 4.875 0.09375 z M 11.125 0.09375 C 9.6448399 0.09375 8.4375 1.5608322 8.4375 3.34375 C 8.4375 3.469274 8.4568662 3.597052 8.46875 3.71875 C 10.151973 3.9999986 11.46875 5.7388355 11.46875 7.84375 C 11.46875 8.9330131 11.104731 9.8939551 10.53125 10.625 C 10.860038 10.854799 11.161024 11.127534 11.4375 11.4375 L 15.5 11.4375 C 15.5 8.9707844 14.089368 6.8810459 12.1875 6.3125 C 13.149416 5.8224237 13.8125 4.6809383 13.8125 3.34375 C 13.8125 1.5608322 12.60516 0.09375 11.125 0.09375 z M 8 4.59375 C 6.5198399 4.59375 5.3125 6.0608322 5.3125 7.84375 C 5.3125 9.1809383 6.0068337 10.322424 6.96875 10.8125 C 5.0530511 11.369286 3.6250001 13.458965 3.625 15.9375 L 12.375 15.9375 C 12.375 13.458966 10.946949 11.369286 9.03125 10.8125 C 9.9931663 10.322424 10.6875 9.1809383 10.6875 7.84375 C 10.6875 6.0608322 9.4801601 4.59375 8 4.59375 z "
     transform="scale(7.92,7.92)"
     id="path3896" /></svg>