<?xml version="1.0" encoding="UTF-8" standalone="no"?>
<svg
   xmlns:dc="http://purl.org/dc/elements/1.1/"
   xmlns:cc="http://creativecommons.org/ns#"
   xmlns:rdf="http://www.w3.org/1999/02/22-rdf-syntax-ns#"
   xmlns:svg="http://www.w3.org/2000/svg"
   xmlns="http://www.w3.org/2000/svg"
   xmlns:sodipodi="http://sodipodi.sourceforge.net/DTD/sodipodi-0.dtd"
   xmlns:inkscape="http://www.inkscape.org/namespaces/inkscape"
   version="1.1"
   id="Layer_1"
   x="0px"
   y="0px"
   width="16"
   height="16"
   viewBox="0 0 126.72 126.72"
   enable-background="new 0 0 612 792"
   xml:space="preserve"
   inkscape:version="0.48.4 r9939"
   sodipodi:docname="favicon.svg"
   inkscape:export-filename="/home/kamila/u/projects/trojsten/techwiki/favicon.png"
   inkscape:export-xdpi="90"
   inkscape:export-ydpi="90"><metadata
     id="metadata3071"><rdf:RDF><cc:Work
         rdf:about=""><dc:format>image/svg+xml</dc:format><dc:type
           rdf:resource="http://purl.org/dc/dcmitype/StillImage" /><dc:title></dc:title></cc:Work></rdf:RDF></metadata><defs
     id="defs3069" /><sodipodi:namedview
     pagecolor="#ffffff"
     bordercolor="#666666"
     borderopacity="1"
     objecttolerance="10"
     gridtolerance="10"
     guidetolerance="10"
     inkscape:pageopacity="0"
     inkscape:pageshadow="2"
     inkscape:window-width="1598"
     inkscape:window-height="865"
     id="namedview3067"
     showgrid="false"
     fit-margin-top="0"
     fit-margin-left="0"
     fit-margin-right="0"
     fit-margin-bottom="0"
     inkscape:zoom="23.88"
     inkscape:cx="15.589334"
     inkscape:cy="6.9812866"
     inkscape:window-x="0"
     inkscape:window-y="34"
     inkscape:window-maximized="0"
     inkscape:current-layer="Layer_1" /><g
     id="g3057"
     transform="matrix(0,-0.95008872,0.95008872,0,-259.73928,357.22203)"
     style="fill:#0089a2;fill-opacity:1"><path
       d="m 313.699,314.8 14.399,14.8 -64.398,71.199 c -2.8,3 -7.8,3 -10.8,0 l -7.8,-8 c -3,-2.8 -3,-7.8 0,-10.8 L 313.699,314.8 z m 60.4,15.2 -10.8,11 c -2.2,2.2 -5.601,2.2 -8,0 l -2.4,-2.6 c -1.8,-1.6 -2.6,-4.6 -1.6,-6 1.8,-1.2 1.2,-4.8 -2.2,-8 -4.8,-5 -11,-5.2 -13.399,-2.6 -1,0.8 -4.2,4.2 -4.2,4.2 l -14.8,-14.6 2.4,-2.4 c 0,0 0.6,-0.6 1.8,-2 4.6,-4.6 -0.2,-9.8 -0.2,-9.8 -13,-12.8 -31.199,-12.6 -31.199,-12.6 l -0.2,-4.6 c 36.6,-9.4 50.399,6.6 55.399,11.6 4.6,4.6 9.399,9.399 10.6,10.6 2.6,2.6 0,10 3.8,14.2 1.8,1.8 4.2,2.6 6,2.6 2,-1.8 5.2,-1.2 6.8,0.6 l 2.2,2.4 c 2.199,2.2 2.199,5.6 -0.001,8 z"
       id="path3059"
       inkscape:connector-curvature="0"
       style="fill:#0089a2;fill-opacity:1" /></g></svg>