<?xml version="1.0" encoding="UTF-8" standalone="no"?>
<svg
   xmlns:dc="http://purl.org/dc/elements/1.1/"
   xmlns:cc="http://creativecommons.org/ns#"
   xmlns:rdf="http://www.w3.org/1999/02/22-rdf-syntax-ns#"
   xmlns:svg="http://www.w3.org/2000/svg"
   xmlns="http://www.w3.org/2000/svg"
   xmlns:sodipodi="http://sodipodi.sourceforge.net/DTD/sodipodi-0.dtd"
   xmlns:inkscape="http://www.inkscape.org/namespaces/inkscape"
   version="1.1"
   id="Layer_1"
   x="0px"
   y="0px"
   width="16"
   height="16"
   viewBox="0 0 126.72 126.72"
   enable-background="new 0 0 612 792"
   xml:space="preserve"
   inkscape:version="0.48.4 r9939"
   sodipodi:docname="wiki.svg"
   inkscape:export-filename="/home/kamila/u/projects/trojsten/techwiki/favicon.png"
   inkscape:export-xdpi="90"
   inkscape:export-ydpi="90"><metadata
     id="metadata3071"><rdf:RDF><cc:Work
         rdf:about=""><dc:format>image/svg+xml</dc:format><dc:type
           rdf:resource="http://purl.org/dc/dcmitype/StillImage" /><dc:title /></cc:Work></rdf:RDF></metadata><defs
     id="defs3069" /><sodipodi:namedview
     pagecolor="#70a025"
     bordercolor="#666666"
     borderopacity="1"
     objecttolerance="10"
     gridtolerance="10"
     guidetolerance="10"
     inkscape:pageopacity="1"
     inkscape:pageshadow="2"
     inkscape:window-width="1598"
     inkscape:window-height="865"
     id="namedview3067"
     showgrid="false"
     fit-margin-top="0"
     fit-margin-left="0"
     fit-margin-right="0"
     fit-margin-bottom="0"
     inkscape:zoom="4.2214275"
     inkscape:cx="-25.130762"
     inkscape:cy="59.267512"
     inkscape:window-x="0"
     inkscape:window-y="34"
     inkscape:window-maximized="0"
     inkscape:current-layer="Layer_1"
     inkscape:object-nodes="true"
     inkscape:snap-smooth-nodes="true"
     inkscape:object-paths="true"
     inkscape:snap-page="true" /><rect
     style="fill:#82a025;fill-opacity:1;stroke:none"
     id="rect4004"
     width="126.72"
     height="126.72"
     x="-8.8817842e-16"
     y="-1.2703784e-14" /><path
     style="fill:#ffffff;stroke:none"
     d="M 5.65625 2.625 L 3.65625 4.71875 L 3.65625 13.25 L 3.65625 13.375 L 10.78125 13.375 L 10.78125 13.25 L 10.78125 4.71875 L 5.09375 4.71875 L 6.09375 3.6875 L 11.8125 3.6875 L 11.8125 12.5625 L 12.8125 11.28125 L 12.8125 2.625 L 5.65625 2.625 z M 5.4375 7.5625 C 5.4957759 7.5465566 5.5436334 7.5625015 5.625 7.5625 L 6.25 7.5625 C 6.4127316 7.562503 6.5255768 7.5924793 6.59375 7.65625 C 6.6641195 7.7178274 6.7187485 7.7738445 6.71875 7.875 C 6.7187485 7.9761608 6.6729159 8.0858815 6.59375 8.15625 C 6.5343731 8.2090306 6.4237271 8.2187523 6.25 8.21875 L 6.5 9.3125 L 6.9375 8.1875 L 7.53125 8.1875 L 7.9375 9.3125 L 8.21875 8.21875 C 8.0516161 8.2187523 7.9277755 8.2204887 7.875 8.1875 C 7.769441 8.1193306 7.7187475 8.0003508 7.71875 7.875 C 7.7187475 7.7760436 7.7443256 7.7178274 7.8125 7.65625 C 7.8828683 7.5924793 8.0247643 7.562503 8.1875 7.5625 L 8.8125 7.5625 C 8.9752291 7.562503 9.0880742 7.5924793 9.15625 7.65625 C 9.2266169 7.7178274 9.2499959 7.7738445 9.25 7.875 C 9.2499959 7.9651654 9.2178206 8.0612288 9.15625 8.125 C 9.0968706 8.186577 9.0249972 8.209956 8.90625 8.21875 L 8.34375 10.53125 L 7.71875 10.53125 L 7.21875 9.3125 L 6.75 10.53125 L 6.125 10.53125 L 5.5625 8.21875 C 5.4393506 8.212155 5.3450236 8.186577 5.28125 8.125 C 5.2196754 8.0612288 5.1875 7.9695636 5.1875 7.875 C 5.1875 7.7760436 5.2130781 7.7178274 5.28125 7.65625 C 5.3164354 7.6243646 5.3792241 7.5784434 5.4375 7.5625 z "
     transform="scale(7.92,7.92)"
     id="rect3021" /></svg>